<svg xmlns="http://www.w3.org/2000/svg" viewBox="0 0 270.742 44.286"><path fill="#ffb2bc" d="m47.031 25.293.063.031.016.016.032.015.031.016.016.016.047.031h.016l.047.032.063.031.016.016.031.016.032.016.031.015.032.032h.016l.047.031h.016l.047.032.016.016.031.015.032.032h.031l.047.032.063.031v.016l.047.016.094.063.015.015.047.016.063.047h.015l.047.032h.015l.2.125.063.031.016.016.032.016.031.016.032.016.11.062.047.032.094.063h.031l.157.11.031.016.141.079.063.031h.016l.141.094h.018l.047.031h.016l.047.047h.016l.047.031.031.016.032.016.031.016.078.047.063.031.016.016.047.016.016.016.031.015.047.032h.016l.063.047.047.031h.016l.047.031.031.016.032.016.047.031h.016l.047.032h.016l.047.031.016.016.047.031.032.016.031.016.047.016.015.016.047.031.047.032.047.015.047.016.032.032.047.015.032.016.047.032.047.015.032.016.047.016.032.016.047.015.047.016.032.016.047.016.031.016h.047l.031.015.047.016.032.016h.047l.032.015h.047l.032.016h.078l.047.016h.11l.031.016h.236l.031-.016h.125l.032-.016h.047l.032-.016h.031l.047-.015h.031l.047-.016h.032l.047-.016c.016-.015.047-.015.079-.031.031-.016.078-.016.11-.032l.047-.016.189-.094c.047-.016.078-.047.125-.063l12.216-6.524.016-5.112-12.287 6.486a1.83 1.83 0 0 1-2.007-.047l-2.117-1.207-1.96-1.113-8.343-4.736-.11-.063c-1.067-.643-1.568-1.271-.565-1.992l.141-.079.141-.094.141-.078.141-.094.157-.079.141-.078.141-.094.141-.078.157-.079.141-.094.141-.079.141-.094.157-.078.141-.078.141-.094.141-.078.157-.094.141-.078.141-.079.141-.094.141-.079.157-.078.141-.094.141-.079.141-.094.157-.078.141-.078.141-.094.141-.078.157-.079.141-.094.141-.078.141-.094.157-.079.141-.078.141-.094.141-.079.157-.094.141-.079.141-.078.141-.094.141-.078.157-.078.141-.094.141-.078.3-.172.141-.079.282-.172.157-.094.282-.156.141-.094.3-.157.141-.094 1.019-.6v.016l3.623-2.117a1.7 1.7 0 0 1 2.1.047l12.389 7.371 4.265-2.823-7.684-4.532-8.72-5.207a2.261 2.261 0 0 0-2.776-.047l-5.426 3.105-.094.047-.079.047-.015.016-.078.031-.063.047h-.016l-.063.031-.016.016-.047.032-.031.016-.032.015-.047.016-.016.016-.047.031-.032.016-.047.016-.016.016-.047.031-.063.032h-.016l-.047.031h-.016l-.047.032h-.016l-.031.015-.032.016-.032.016-.031.016-.016.015a21.72 21.72 0 0 1-3.262.157H17.376l-.063.016h-.063l-.063.015h-.047l-.063.016h-.061l-.047.016-.063.016-.047.016-.047.015-.063.016-.047.016-.047.016-.047.015-.047.016-.063.016-.047.031-.031.016a1.964 1.964 0 0 0 .611 3.638l.063.016h.047l.047.015h15.494c2.211 0 2.337 3.811-.533 3.811h-.8l-.031-.032-.047.032h-.706l-.031-.032-.079.032h-10.13a2.001 2.001 0 1 0-.125 4h7.716c1.129 0 3.638 1.113 5.944 2.258l12.326 6.477c.282.172.565.345.847.5Z"/><path fill="#fc85fc" d="m47.281 7.761 3.623-2.117a1.7 1.7 0 0 1 2.1.047l12.389 7.371 4.265-2.823-7.684-4.532L53.254.5a2.261 2.261 0 0 0-2.776-.047l-5.426 3.105-.094.047-.079.047-.015.016-.078.031-.063.047h-.016l-.063.031-.016.016-.047.032-.031.016-.032.015-.047.016-.016.016-.047.031-.032.016-.047.016-.016.016-.047.031-.063.032h-.016l-.047.031h-.016l-.047.032h-.016l-.031.015-.032.016-.032.016-.031.016-.016.015a21.72 21.72 0 0 1-3.262.157H17.376l-.063.016h-.063l-.063.015h-.047l-.063.016h-.061l-.047.016-.063.016-.047.016-.047.015-.063.016-.047.016-.047.016-.047.015-.047.016-.063.016-.047.031-.031.016a1.964 1.964 0 0 0 .611 3.638l.063.016h.047l.047.015h15.494c2.211 0 2.337 3.811-.533 3.811h-.8l-.031-.032-.047.032h-.706l-.031-.032-.079.032h-10.13a2.001 2.001 0 1 0-.125 4h7.716c1.129 0 3.638 1.113 5.944 2.258l12.326 6.477c1.38.815 2.87 1.678 4.454 2.587a2.373 2.373 0 0 0 2.525.079l6.6-3.529c-3.168 1.192-6.116-.219-8.657-1.662l-12.42-7.057-.11-.063c-1.067-.643-1.568-1.271-.565-1.992l.141-.079.141-.094.141-.078.141-.094.157-.079.141-.078.141-.094.141-.078.157-.079.141-.094.141-.079.141-.094.157-.078.141-.078.141-.094.141-.078.157-.094.141-.078.141-.079.141-.094.141-.079.157-.078.141-.094.141-.079.141-.094.157-.078.141-.078.141-.094.141-.078.157-.079.141-.094.141-.078.141-.094.157-.079.141-.078.141-.094.141-.079.157-.094.141-.079.141-.078.141-.094.141-.078.157-.078.141-.094.141-.078.3-.172.141-.079.282-.172.157-.094.282-.156.141-.094.3-.157.141-.094 1.019-.6Z"/><path fill="#f75ece" d="m38.016 13.155 9.268-5.395v-.016l3.623-2.1a1.7 1.7 0 0 1 2.1.047l12.389 7.371 4.265-2.823-7.684-4.532L53.257.5a2.261 2.261 0 0 0-2.776-.047l-5.426 3.105-.094.047-.079.047-.015.016-.078.031-.063.047h-.016l-.063.031-.016.016-.047.032-.031.016-.032.015-.047.016-.016.016-.047.031-.032.016-.047.016-.016.016-.047.031-.063.032h-.016l-.047.031h-.016l-.047.032h-.016l-.031.015-.032.016-.032.016-.031.016-.016.015a21.72 21.72 0 0 1-3.262.157H17.376l-.063.016h-.063l-.063.015h-.047l-.063.016h-.061l-.047.016-.063.016-.047.016-.047.015-.063.016-.047.016-.047.016-.047.015-.047.016-.063.016-.047.031-.031.016a1.964 1.964 0 0 0 .611 3.638l.063.016h.047l.047.015h15.494c2.211 0 2.337 3.811-.533 3.811h-.8l-.031-.032-.047.032h-.706l-.031-.032-.079.032h-10.13a2.001 2.001 0 1 0-.125 4h7.716c1.9 0 7.731 3.152 9.848 4.312a4.085 4.085 0 0 1-.172-6.978l-.047.031Z"/><path fill="#f030b0" d="m47.281 7.761 3.623-2.117a1.7 1.7 0 0 1 2.1.047l12.389 7.371 4.265-2.823-7.684-4.532L53.254.5a2.261 2.261 0 0 0-2.776-.047l-5.426 3.105-.094.047-.079.047-.015.016-.078.031-.063.047h-.016l-.063.031-.016.016-.047.032-.031.016-.032.015-.047.016-.016.016-.047.031-.032.016-.047.016-.016.016-.047.031-.063.032h-.016l-.047.031h-.016l-.047.032h-.016l-.031.015-.032.016-.032.016-.031.016-.016.015a21.72 21.72 0 0 1-3.262.157H17.376l-.063.016h-.063l-.063.015h-.047l-.063.016h-.061l-.047.016-.063.016-.047.016-.047.015-.063.016-.047.016-.047.016-.047.015-.047.016-.063.016-.047.031-.031.016a1.964 1.964 0 0 0 .611 3.638l.063.016h.047l.047.015h26.328a11.883 11.883 0 0 0 3.763-.486Z"/><path fill="#c0ed57" d="m58.526 40.914-4.752 2.76a2.953 2.953 0 0 1-3.419.126l-6.194-3.372a5.9 5.9 0 0 0-3.513-.988H26.957a1.941 1.941 0 0 1-2.148-1.788 1.974 1.974 0 0 1 2.148-1.96h4.987l2.666-.016.2-.016c-.063 0-.11.016-.172.016h-.016v-.016h.11c2.227-.345 1.694-4.108-.125-4.108H8.5l-.063-.018h-.235l-.063-.016h-.047l-.063-.016h-.047l-.063-.015h-.047l-.047-.016-.063-.016-.047-.016-.047-.015-.047-.016-.047-.016-.047-.016-.047-.015-.047-.016-.047-.016v-.015l-.047-.015-.047-.016-.047-.032-.032-.016-.047-.031-.032-.016-.047-.031-.032-.016-.047-.032-.031-.031-.032-.032-.047-.031-.032-.016-.031-.031-.032-.032-.031-.031-.032-.032-.015-.031v-.016l-.032-.032-.032-.031-.031-.032-.016-.031-.031-.047-.016-.031c-.016-.031-.047-.079-.063-.11l-.016-.047-.016-.031-.031-.078-.016-.047-.016-.032-.015-.047v-.047l-.016-.032-.016-.047v-.09l-.016-.031v-.376l.016-.047a.139.139 0 0 1 .016-.078v-.047c.016-.031.016-.063.031-.094l.016-.079a1.207 1.207 0 0 1 .047-.126 1.41 1.41 0 0 1 .094-.157l.016-.047.015-.031h.016a1.317 1.317 0 0 1 .125-.188l.063-.063a1 1 0 0 1 .125-.125l.047-.031.031-.032.032-.015.047-.032.079-.063.031-.016.094-.047.031-.031.047-.016.047-.016.047-.031.047-.015.047-.016.047-.016c.031-.015.063-.015.094-.031l.047-.016.11-.016.047-.016.063-.015h.047l.047-.016h.11l.063-.016h17.409c.988 0 1.662.659 1.741-.125l.015-.016v-.078l-.015-.079v-2.431l-.016-.078v-.079a.117.117 0 0 1-.016-.078l-.031-.063-.016-.079-.032-.078-.031-.063c-.016-.031-.032-.047-.032-.078l-.047-.063-.047-.063-.047-.063-.047-.063-.047-.063-.063-.063-.032-.031a2.507 2.507 0 0 0-1.615-.471l-7.982-.016H14.47l-.063-.016h-.063c-2.634-.282-2.65-3.34-.3-3.669h.032a1.77 1.77 0 0 1 .5-.031l12.844-.157a11.83 11.83 0 0 1 4.94 1.38 45.032 45.032 0 0 1 5.05 2.556l13.283 7.1a2.1 2.1 0 0 0 1.4.423 5.359 5.359 0 0 0 .878-.345c.141-.078.282-.172.454-.267l4.752-2.587c4.109-2.242 6.649 1.192 5.614 1.913l-10.711 6.21v.016l-.361.2c-1 .721-.721 2.054.455 1.678.125-.063.267-.11.408-.188h.016l.016-.016 12.451-7.339.847-.69a3.65 3.65 0 0 0 .721-2.462v-7.731c0-3.544 1.067-6.085 4.72-6.743v17.188c0 2.274-.157 2.807-2.149 3.873l-11.678 6.817Z"/><path fill="#96e86a" d="m58.526 40.912-4.752 2.76a2.953 2.953 0 0 1-3.419.126l-6.194-3.372-.079-.031-.063-.031-.063-.032-.063-.031-.063-.032-.063-.031-.063-.032-.063-.032-.047-.031-.063-.031-.047-.032-.063-.016-.047-.031-.063-.032-.047-.016-.047-.031-.047-.016-.047-.031-.063-.016-.047-.031-.047-.015-.047-.016-.047-.032-.047-.015-.047-.016-.047-.016-.032-.016-.047-.031-.047-.016-.047-.016-.047-.015-.047-.016h-.047l-.047-.016-.047-.016-.047-.016-.047-.015-.047-.016h-.045l-.047-.016-.047-.016h-.047l-.047-.015h-.047l-.063-.016h-.047l-.047-.016h-.063l-.047-.016h-.125l-.047-.015h-.188l-.063-.016H26.644a2.047 2.047 0 0 1-2.149-1.945 2.1 2.1 0 0 1 2.149-2.117l8.029-.032a1.719 1.719 0 0 0 1.506-1.976c-.11-.941-.69-1.819-1.568-1.819H8.5l-.063-.016h-.235l-.063-.016h-.047l-.063-.016h-.047l-.063-.015h-.047l-.047-.016-.063-.016-.047-.016-.047-.015-.047-.016-.047-.016-.047-.016-.047-.015-.043-.01-.047-.016v-.016l-.047-.015-.047-.016-.047-.032-.032-.016-.047-.031-.032-.016-.047-.031-.032-.016-.047-.031-.031-.031-.032-.032-.047-.031-.032-.016-.031-.031-.032-.032-.031-.031-.032-.032-.015-.031v-.016l-.032-.032-.032-.031-.031-.031-.016-.031-.031-.047-.016-.031c-.016-.031-.047-.079-.063-.11l-.016-.047-.016-.031-.031-.078-.016-.047-.016-.032-.015-.047v-.047l-.016-.032-.016-.047v-.094l-.016-.031V29.292l.016-.047a.139.139 0 0 1 .016-.078v-.047c.016-.031.016-.063.031-.094l.016-.079a1.164 1.164 0 0 1 .047-.125 1.4 1.4 0 0 1 .094-.157l.016-.047.015-.032h.016a1.339 1.339 0 0 1 .125-.188l.063-.063a1 1 0 0 1 .125-.125l.047-.031.031-.032.032-.015.047-.032.079-.063.031-.016.094-.047.031-.032.047-.015.047-.016.047-.032.047-.015.047-.016.047-.016c.031-.016.063-.016.094-.031l.047-.016.11-.016.047-.016.063-.016h.047l.047-.015h.11l.063-.016h17.094a1.73 1.73 0 0 0 1.741-1.537l.016-.016v-.079l-.016-.078v-.078l-.015-.706v-.078a.141.141 0 0 1-.016-.078l-.032-.063-.015-.078-.032-.078-.031-.063c-.016-.031-.032-.047-.032-.078l-.047-.063-.047-.063-.047-.078-.047-.063-.047-.047-.063-.063-.032-.031a2.555 2.555 0 0 0-1.537-.471l-7.747-.016h-3.278l-.063-.016h-.063c-2.634-.282-2.65-3.5-.3-3.826h.031a1.754 1.754 0 0 1 .5-.032h13.314c.047 0 .078.016.125.016h.125a.431.431 0 0 1 .141.016h.125l.141.015c.047.016.094.016.141.032l.141.016.157.031.141.032a.55.55 0 0 1 .157.031l.157.032.157.031.157.047.157.047.172.031.157.047.172.063a40.921 40.921 0 0 1 7.433 3.309l13.283 7.323c.094.047.188.016.282.063a1.851 1.851 0 0 0 1.145.282 5.362 5.362 0 0 0 .878-.345c.141-.078.282-.172.454-.267l4.752-2.588c4.109-2.242 6.649 1.192 5.614 1.913l-4.726 2.743-5.975 3.466v.016l-.361.2-.047.031-.047.032-.032.031-.015.016-.032.031h-.013l-.015.032h-.016l-.032.047a.361.361 0 0 0-.063.078l-.031.032-.016.015-.016.032a.336.336 0 0 0-.047.078h-.016a.389.389 0 0 1-.063.11v.016l-.016.031-.015.047v.015l-.016.016v.016l-.016.031v.016l-.016.032v.047l-.015.031v.047l-.016.031V37.675l.016.031v.063l.015.015v.032l.016.031c0 .016 0 .032.016.032v.031l.016.016.015.016v.031l.016.016.016.016.016.016.015.015v.016l.016.016.016.016.016.015a1.287 1.287 0 0 0 .58.157.535.535 0 0 0 .345-.078c.11-.047.22-.094.345-.157h.016l.016-.016 12.451-7.339c2.619-1.553 5.8-3.089 6.289-6.869v6.43c0 2.274-.157 2.807-2.149 3.873l-11.683 6.806Z"/><path fill="#bf2496" d="m53.006 5.691 12.389 7.371 4.266-2.823-7.684-4.532L53.257.5a2.261 2.261 0 0 0-2.776-.047l-5.426 3.105c1.96-.424 3.419-.8 7.951 2.133Z"/><path fill="#19b4e8" d="m58.526 40.912-4.752 2.76a2.953 2.953 0 0 1-3.419.126l-6.194-3.372-.079-.031-.063-.031-.063-.032-.063-.031-.063-.032-.063-.031-.063-.032-.063-.032-.047-.031-.063-.031-.047-.032-.063-.016-.047-.031-.063-.032-.047-.016-.047-.031-.047-.016-.047-.031-.063-.016-.047-.031-.047-.015-.047-.016-.047-.032-.047-.015-.047-.016-.047-.016-.032-.016-.047-.031-.047-.016-.047-.016-.047-.015-.047-.016h-.047l-.047-.016-.047-.016-.047-.016-.047-.015-.047-.016h-.045l-.047-.016-.047-.016h-.047l-.047-.015h-.047l-.063-.016h-.047l-.047-.016h-.063l-.047-.016h-.125l-.047-.015h-.188l-.063-.016H26.644a2.047 2.047 0 0 1-2.149-1.945 2.1 2.1 0 0 1 2.149-2.117l8.029-.032a1.719 1.719 0 0 0 1.506-1.976c-.11-.941-.69-1.819-1.568-1.819H8.5l-.063-.016h-.235l-.063-.016h-.047l-.063-.016h-.047l-.063-.015h-.047l-.047-.016-.063-.016-.047-.016-.047-.015-.047-.016-.047-.016-.047-.016-.047-.015-.043-.01-.047-.016v-.016l-.047-.015-.047-.016-.047-.032-.032-.016-.047-.031-.032-.016-.047-.031-.032-.016-.047-.031-.031-.031-.032-.032-.047-.031-.032-.016-.031-.031-.032-.032-.031-.031-.032-.032-.015-.031v-.016l-.032-.032-.032-.031-.031-.031-.016-.031-.031-.047-.016-.031c-.016-.031-.047-.079-.063-.11l-.016-.047-.016-.031-.031-.078-.016-.047-.016-.032-.015-.047v-.047l-.016-.032-.016-.047v-.094l-.016-.031v-.69l.016-.047a.139.139 0 0 1 .016-.078v-.047c.016-.031.016-.063.031-.094l.016-.079a1.164 1.164 0 0 1 .047-.125 1.4 1.4 0 0 1 .094-.157l.016-.047.015-.032h.016a1.339 1.339 0 0 1 .125-.188l.063-.063a1 1 0 0 1 .125-.125l.047-.031.031-.032.032-.015.047-.032.079-.063.031-.016.094-.047.031-.032.047-.015.047-.016.047-.032.047-.015.047-.016.047-.016c.031-.016.063-.016.094-.031l.047-.016.11-.016.047-.016.063-.016h.047l.047-.015h.11l.063-.016h17.094a1.73 1.73 0 0 0 1.741-1.537l.016-.016v-.079l-.016-.078v-.078l-.015-.706v-.078a.141.141 0 0 1-.016-.078l-.032-.063-.015-.078-.032-.078-.031-.063c-.016-.031-.032-.047-.032-.078l-.047-.063-.047-.063-.047-.078-.047-.063-.047-.047-.063-.063-.032-.031a2.507 2.507 0 0 0-1.615-.471l-8.139-.016h-2.807l-.063-.016h-.063c-2.634-.282-2.65-3.5-.3-3.826h.031a1.754 1.754 0 0 1 .5-.032h13.314c2.634 0 7.731 2.587 9.99 3.936l13.283 7.1c2.509 1.349 4.438 3.026 8.359 1.882l-5.975 3.466v.016l-.361.2c-.658.47-.768 1.223-.407 1.568a1.39 1.39 0 0 0 .737.157 4.345 4.345 0 0 0 .533-.235h.016l.016-.016 12.451-7.339c2.619-1.553 5.8-3.089 6.289-6.869v6.43c0 2.274-.157 2.807-2.149 3.873l-11.683 6.806Z"/><path fill="#198be8" d="m58.526 40.912-4.752 2.76a2.953 2.953 0 0 1-3.419.126l-6.194-3.372a5.928 5.928 0 0 0-3.513-.988h-14a2.047 2.047 0 0 1-2.149-1.945 2.1 2.1 0 0 1 2.149-2.117l8.029-.032c2.2-.267 1.788-3.544.141-3.795l3.325.031c8.28.063 13.455 7.37 15.039 6.634.125-.063.267-.11.408-.188h.016l.016-.016 12.451-7.339c2.619-1.553 5.8-3.089 6.289-6.869v6.43c0 2.274-.157 2.807-2.148 3.873l-11.683 6.806Z"/><path fill="#20d67b" d="m25.264 23.819-7.982-.016h-3.278l-.063-.016h-.063c-2.634-.282-2.65-3.5-.3-3.826h.031a1.756 1.756 0 0 1 .5-.031l13.5-.016c3.952 0 12.389 5.363 17.329 7.982-5.159-2.2-9.409-3.889-19.681-4.077Z"/><path fill="#f75ece" d="M11.228 12.058h2.949a2.176 2.176 0 0 1 2.148 2.038 2.088 2.088 0 0 1-2.148 1.945h-1.929l-1.066-.031a2.048 2.048 0 0 1-2.1-1.976 2.181 2.181 0 0 1 2.148-1.976Z"/><path fill="#19b4e8" d="M15.556 35.412h3.481a2.108 2.108 0 0 1 2.117 1.9 1.994 1.994 0 0 1-2.117 2.148h-3.481a2.023 2.023 0 1 1 0-4.046Z"/><path fill="#666" d="M17.282 28.978a14.57 14.57 0 0 0 1.662 0Z"/><path fill="#96e86a" d="M2.263 19.899H7.72a2.093 2.093 0 0 1 2.274 1.913 2.029 2.029 0 0 1-2.133 1.992h-5.6a2.1 2.1 0 0 1-2.259-1.976 2.052 2.052 0 0 1 2.259-1.929Z"/><path fill="#fc85fc" d="m47.281 7.761 3.623-2.117a1.7 1.7 0 0 1 2.1.047l12.389 7.371 4.265-2.823-7.684-4.532L53.254.5a2.261 2.261 0 0 0-2.776-.047l-5.426 3.105-.094.047-.079.047-.015.016-.078.031-.063.047h-.016l-.063.031-.016.016-.047.032-.031.016-.032.015-.047.016-.016.016-.047.031-.032.016-.047.016-.016.016-.047.031-.063.032h-.016l-.047.031h-.016l-.047.032h-.016l-.031.015-.032.016-.032.016-.031.016-.016.015a21.72 21.72 0 0 1-3.262.157H17.376l-.063.016h-.063l-.063.015h-.047l-.063.016h-.061l-.047.016-.063.016-.047.016-.047.015-.063.016-.047.016-.047.016-.047.015-.047.016-.063.016-.047.031-.031.016a1.964 1.964 0 0 0 .611 3.638l.063.016h.047l.047.015h15.494c2.211 0 2.337 3.811-.533 3.811h-.8l-.031-.032-.047.032h-.706l-.031-.032-.079.032h-10.13a2.001 2.001 0 1 0-.125 4h7.716c1.129 0 3.638 1.113 5.944 2.258l12.326 6.477c1.38.815 2.87 1.678 4.454 2.587a2.373 2.373 0 0 0 2.525.079l6.6-3.529c-3.168 1.192-6.116-.219-8.657-1.662l-12.42-7.057-.11-.063c-1.067-.643-1.568-1.271-.565-1.992l.141-.079.141-.094.141-.078.141-.094.157-.079.141-.078.141-.094.141-.078.157-.079.141-.094.141-.079.141-.094.157-.078.141-.078.141-.094.141-.078.157-.094.141-.078.141-.079.141-.094.141-.079.157-.078.141-.094.141-.079.141-.094.157-.078.141-.078.141-.094.141-.078.157-.079.141-.094.141-.078.141-.094.157-.079.141-.078.141-.094.141-.079.157-.094.141-.079.141-.078.141-.094.141-.078.157-.078.141-.094.141-.078.3-.172.141-.079.282-.172.157-.094.282-.156.141-.094.3-.157.141-.094 1.019-.6Z"/><path fill="#f75ece" d="m38.016 13.155 9.268-5.395v-.016l3.623-2.1a1.7 1.7 0 0 1 2.1.047l12.389 7.371 4.265-2.823-7.684-4.532L53.257.5a2.261 2.261 0 0 0-2.776-.047l-5.426 3.105-.094.047-.079.047-.015.016-.078.031-.063.047h-.016l-.063.031-.016.016-.047.032-.031.016-.032.015-.047.016-.016.016-.047.031-.032.016-.047.016-.016.016-.047.031-.063.032h-.016l-.047.031h-.016l-.047.032h-.016l-.031.015-.032.016-.032.016-.031.016-.016.015a21.72 21.72 0 0 1-3.262.157H17.376l-.063.016h-.063l-.063.015h-.047l-.063.016h-.061l-.047.016-.063.016-.047.016-.047.015-.063.016-.047.016-.047.016-.047.015-.047.016-.063.016-.047.031-.031.016a1.964 1.964 0 0 0 .611 3.638l.063.016h.047l.047.015h15.494c2.211 0 2.337 3.811-.533 3.811h-.8l-.031-.032-.047.032h-.706l-.031-.032-.079.032h-10.13a2.001 2.001 0 1 0-.125 4h7.716c1.9 0 7.731 3.152 9.848 4.312a4.085 4.085 0 0 1-.172-6.978l-.047.031Z"/><path fill="#f030b0" d="m47.281 7.761 3.623-2.117a1.7 1.7 0 0 1 2.1.047l12.389 7.371 4.265-2.823-7.684-4.532L53.254.5a2.261 2.261 0 0 0-2.776-.047l-5.426 3.105-.094.047-.079.047-.015.016-.078.031-.063.047h-.016l-.063.031-.016.016-.047.032-.031.016-.032.015-.047.016-.016.016-.047.031-.032.016-.047.016-.016.016-.047.031-.063.032h-.016l-.047.031h-.016l-.047.032h-.016l-.031.015-.032.016-.032.016-.031.016-.016.015a21.72 21.72 0 0 1-3.262.157H17.376l-.063.016h-.063l-.063.015h-.047l-.063.016h-.061l-.047.016-.063.016-.047.016-.047.015-.063.016-.047.016-.047.016-.047.015-.047.016-.063.016-.047.031-.031.016a1.964 1.964 0 0 0 .611 3.638l.063.016h.047l.047.015h26.328a11.883 11.883 0 0 0 3.763-.486Z"/><path fill="#bf2496" d="m53.006 5.691 12.389 7.371 4.266-2.823-7.684-4.532L53.257.5a2.261 2.261 0 0 0-2.776-.047l-5.426 3.105c1.96-.424 3.419-.8 7.951 2.133Z"/><g fill="currentColor"><path d="M84.396 29.41V10.801h5.647a13.4 13.4 0 0 1 3.436.322 5.1 5.1 0 0 1 2.673 1.648 4.307 4.307 0 0 1 .984 2.834 4.155 4.155 0 0 1-.442 1.949 5.184 5.184 0 0 1-1.467 1.628 5.7 5.7 0 0 1 2.472 1.989 4.969 4.969 0 0 1 .784 2.814 5.3 5.3 0 0 1-.8 2.874 5.207 5.207 0 0 1-2.11 1.909 7.777 7.777 0 0 1-3.537.643Zm3.537-15.232v3.939h3.171a2.882 2.882 0 0 0 1.969-.563 1.844 1.844 0 0 0 .643-1.487 1.725 1.725 0 0 0-.6-1.387 2.843 2.843 0 0 0-1.869-.5Zm0 7.094v4.783h3.738a4 4 0 0 0 2.572-.563 1.9 1.9 0 0 0 .784-1.628 2.26 2.26 0 0 0-.925-1.889 3.218 3.218 0 0 0-2.432-.7Zm19.571-5.969a7.4 7.4 0 0 1 3.657.985 7.089 7.089 0 0 1 3.657 6.229 7.189 7.189 0 0 1-.965 3.637 7.3 7.3 0 0 1-2.652 2.653 7.5 7.5 0 0 1-3.7.945 6.964 6.964 0 0 1-5.064-2.09 7.034 7.034 0 0 1-2.09-5.124 7.218 7.218 0 0 1 7.157-7.235Zm.04 3.256a3.533 3.533 0 0 0-2.673 1.105 3.958 3.958 0 0 0-1.085 2.874 4.048 4.048 0 0 0 1.065 2.894 3.548 3.548 0 0 0 2.693 1.1 3.625 3.625 0 0 0 2.693-1.125 4.379 4.379 0 0 0 .02-5.747 3.561 3.561 0 0 0-2.713-1.105Zm8.38-2.914h4.019l2.713 3.758 2.713-3.758h3.959l-4.682 6.491 5.285 7.274h-4.019l-3.276-4.5-3.255 4.5h-3.959l5.225-7.234ZM150.129 14.238l-1.467 1.125a8.1 8.1 0 0 0-2.914-2.391 8.623 8.623 0 0 0-3.738-.824 8.334 8.334 0 0 0-4.119 1.065 7.964 7.964 0 0 0-2.954 2.874 8.142 8.142 0 0 0-1.045 4.06 7.635 7.635 0 0 0 2.331 5.687 8.124 8.124 0 0 0 5.908 2.291 8.3 8.3 0 0 0 6.531-3.055l1.467 1.1a9.282 9.282 0 0 1-3.476 2.733 10.9 10.9 0 0 1-4.642.965 9.688 9.688 0 0 1-7.717-3.235 9.862 9.862 0 0 1-2.371-6.632 9.191 9.191 0 0 1 2.874-6.873 9.834 9.834 0 0 1 7.174-2.793 10.643 10.643 0 0 1 4.723 1.029 9.352 9.352 0 0 1 3.436 2.874Zm43.527 7.033c0-4.682 2.934-5.989 5.647-5.929a4.8 4.8 0 0 1 4.743 3.276 4.582 4.582 0 0 1 4.622-3.316c3.939 0 5.566 2.673 5.566 6.15v7.955h-1.808v-7.958c0-2.331-.623-4.421-3.678-4.421-2.874 0-3.939 2.15-3.939 4.742v7.637h-1.768v-7.5c0-3.919-2.171-4.883-3.979-4.863-1.99.04-3.637 1.226-3.637 4.441v7.922h-1.768Zm-33.7-5.969a6.814 6.814 0 0 1 5.285 2.311 7.317 7.317 0 0 1-.12 9.987 7.3 7.3 0 0 1-10.349 0 7.373 7.373 0 0 1-.12-9.987 6.923 6.923 0 0 1 5.305-2.311Zm0 1.748a5.078 5.078 0 0 0-3.8 1.628 5.4 5.4 0 0 0-1.587 3.939 5.6 5.6 0 0 0 .723 2.773 5.1 5.1 0 0 0 1.95 1.969 5.544 5.544 0 0 0 5.406 0 5.1 5.1 0 0 0 1.949-1.969 5.6 5.6 0 0 0 .724-2.773 5.4 5.4 0 0 0-1.588-3.939 5.13 5.13 0 0 0-3.778-1.628Zm10.008 4.22c0-4.682 2.773-5.989 5.506-5.929a4.985 4.985 0 0 1 4.883 3.276 4.575 4.575 0 0 1 4.6-3.316c3.959 0 5.586 2.673 5.586 6.15v7.956h-1.809v-7.958c0-2.331-.622-4.421-3.677-4.421-2.874 0-3.959 2.15-3.959 4.742v7.637h-1.748v-7.5c0-3.919-2.19-4.883-4-4.863-1.99.04-3.637 1.226-3.637 4.441v7.922h-1.748Zm59.061 3.577 1.487.784a8.546 8.546 0 0 1-1.708 2.331 6.727 6.727 0 0 1-2.171 1.326 7.287 7.287 0 0 1-2.733.462 6.652 6.652 0 0 1-5.285-2.211 7.512 7.512 0 0 1-.281-9.626A6.641 6.641 0 0 1 223.8 15.3a6.846 6.846 0 0 1 5.647 2.673 7.418 7.418 0 0 1 1.527 4.7h-12.44a5.634 5.634 0 0 0 1.527 3.919 5.021 5.021 0 0 0 3.678 1.527 6.062 6.062 0 0 0 2.07-.362 5.3 5.3 0 0 0 1.688-.965 7.707 7.707 0 0 0 1.527-1.949Zm0-3.7A5.8 5.8 0 0 0 228 18.876a5.009 5.009 0 0 0-1.809-1.366 5.578 5.578 0 0 0-2.351-.522 5.151 5.151 0 0 0-3.517 1.306 5.994 5.994 0 0 0-1.607 2.854Zm3.939-1.326a4.583 4.583 0 0 1 6.974-4.04l-.925 1.487a2.42 2.42 0 0 0-.945-.241c-3.7 0-3.3 3.115-3.3 5.627v6.753h-1.809Zm21.4-1.306-1.407.864a5.894 5.894 0 0 0-4.984-2.412 5.825 5.825 0 0 0-4.2 1.608 5.3 5.3 0 0 0-1.668 3.919 5.657 5.657 0 0 0 .763 2.833 5.437 5.437 0 0 0 2.11 2.05 5.967 5.967 0 0 0 2.994.744 6.074 6.074 0 0 0 4.984-2.412l1.407.924a6.68 6.68 0 0 1-2.652 2.291 8.361 8.361 0 0 1-3.8.824 7.539 7.539 0 0 1-5.446-2.07 6.76 6.76 0 0 1-2.15-5.044 7.248 7.248 0 0 1 1-3.7 7.1 7.1 0 0 1 2.773-2.673 8.132 8.132 0 0 1 3.959-.965 8.29 8.29 0 0 1 2.632.422 7.829 7.829 0 0 1 2.171 1.085 5.946 5.946 0 0 1 1.507 1.708Zm14.429 6.33 1.487.784a8.161 8.161 0 0 1-1.708 2.331 6.727 6.727 0 0 1-2.171 1.326 7.712 7.712 0 0 1-2.733.462 6.581 6.581 0 0 1-5.265-2.211 7.3 7.3 0 0 1-1.909-4.963 7.379 7.379 0 0 1 1.608-4.662 6.653 6.653 0 0 1 5.486-2.613 6.834 6.834 0 0 1 5.627 2.673 7.378 7.378 0 0 1 1.527 4.7h-12.439a5.563 5.563 0 0 0 1.547 3.919 4.958 4.958 0 0 0 3.678 1.527 5.948 5.948 0 0 0 2.05-.362 5.3 5.3 0 0 0 1.688-.965 7.717 7.717 0 0 0 1.527-1.949Zm.02-3.7a6.112 6.112 0 0 0-1.045-2.271 5.011 5.011 0 0 0-1.809-1.366 5.577 5.577 0 0 0-2.351-.522 5.151 5.151 0 0 0-3.517 1.306 5.994 5.994 0 0 0-1.607 2.854Z"/></g></svg>